ffmpeg started on 2025-06-06 at 15:55:12
Report written to "D:\Convert\FFMetrics\reports\psnr_report-6.txt"
Log level: 32
Command line:
ffmpeg -hide_banner -nostdin -i "G:\\\xc0\xed\xe8\xec\xe5\\\xce\xed\xe3\xee\xe8\xed\xe3\xe8\\!_36_\xce\xf1\xe5\xed\xfc_2024\\DreamCast\\\xcf\xe5\xf0\xe5\xf0\xee\xe6\xe4\xe5\xed\xe8\xe5 \xe2 \xe0\xf0\xe8\xf1\xf2\xee\xea\xf0\xe0\xf2\xe0 \xf1\xee \xf1\xef\xee\xf1\xee\xe1\xed\xee\xf1\xf2\xfc\xfe \xe0\xed\xe0\xeb\xe8\xe7\xe0\\\xd2\xc2-1\\[DC] Tensei Kizoku - Kantei Skill de Nariagaru - 08_Telegram_HEVC.mkv" -i "G:\\\xc0\xed\xe8\xec\xe5\\\xce\xed\xe3\xee\xe8\xed\xe3\xe8\\!_36_\xce\xf1\xe5\xed\xfc_2024\\DreamCast\\\xcf\xe5\xf0\xe5\xf0\xee\xe6\xe4\xe5\xed\xe8\xe5 \xe2 \xe0\xf0\xe8\xf1\xf2\xee\xea\xf0\xe0\xf2\xe0 \xf1\xee \xf1\xef\xee\xf1\xee\xe1\xed\xee\xf1\xf2\xfc\xfe \xe0\xed\xe0\xeb\xe8\xe7\xe0\\\xd2\xc2-1\\[DC] Tensei Kizoku - Kantei Skill de Nariagaru - 08_Telegram.mp4" -lavfi "[0:v]settb=AVTB,setpts=PTS-STARTPTS,format=pix_fmts=yuv420p10,fps=24000/1001,scale=1920:1080:flags=bicubic[main];[1:v]settb=AVTB,setpts=PTS-STARTPTS,format=pix_fmts=yuv420p,fps=24000/1001,scale=1920:1080:flags=bicubic[ref];[main][ref]psnr=eof_action=endall:stats_file='D\\:/Convert/FFMetrics/logs/psnr_logfile-6.txt'" -f null -
Input #0, matroska,webm, from 'G:\Аниме\Онгоинги\!_36_Осень_2024\DreamCast\Перерождение в аристократа со способностью анализа\ТВ-1\[DC] Tensei Kizoku - Kantei Skill de Nariagaru - 08_Telegram_HEVC.mkv':
  Metadata:
    COMPATIBLE_BRANDS: isomiso2avc1mp41
    MAJOR_BRAND     : isom
    MINOR_VERSION   : 512
    ENCODER         : Lavf61.7.100
  Duration: 00:23:47.59, start: -0.021000, bitrate: 993 kb/s
  Stream #0:0: Video: hevc (Main 10), yuv420p10le(tv, bt709, progressive), 1920x1080 [SAR 1:1 DAR 16:9], 23.98 fps, 23.98 tbr, 1k tbn (default)
      Metadata:
        HANDLER_NAME    : VideoHandler
        VENDOR_ID       : [0][0][0][0]
        ENCODER         : Lavc61.19.100 libx265
        BPS             : 796410
        DURATION        : 00:23:46.591708333
        NUMBER_OF_FRAMES: 34204
        NUMBER_OF_BYTES : 142018937
        _STATISTICS_WRITING_APP: mkvpropedit v66.0.0 ('Josie') 64-bit
        _STATISTICS_WRITING_DATE_UTC: 2025-06-02 08:02:10
        _STATISTICS_TAGS: BPS DURATION NUMBER_OF_FRAMES NUMBER_OF_BYTES
  Stream #0:1: Audio: aac (LC), 48000 Hz, stereo, fltp (default)
      Metadata:
        HANDLER_NAME    : SoundHandler
        VENDOR_ID       : [0][0][0][0]
        ENCODER         : Lavc61.19.100 aac
        BPS             : 193583
        DURATION        : 00:23:47.584000000
        NUMBER_OF_FRAMES: 66919
        NUMBER_OF_BYTES : 34544636
        _STATISTICS_WRITING_APP: mkvpropedit v66.0.0 ('Josie') 64-bit
        _STATISTICS_WRITING_DATE_UTC: 2025-06-02 08:02:10
        _STATISTICS_TAGS: BPS DURATION NUMBER_OF_FRAMES NUMBER_OF_BYTES
Input #1, mov,mp4,m4a,3gp,3g2,mj2, from 'G:\Аниме\Онгоинги\!_36_Осень_2024\DreamCast\Перерождение в аристократа со способностью анализа\ТВ-1\[DC] Tensei Kizoku - Kantei Skill de Nariagaru - 08_Telegram.mp4':
  Metadata:
    major_brand     : isom
    minor_version   : 512
    compatible_brands: isomiso2avc1mp41
    encoder         : Lavf60.16.100
  Duration: 00:23:47.53, start: 0.000000, bitrate: 3593 kb/s
  Stream #1:0[0x1](und): Video: h264 (High) (avc1 / 0x31637661), yuv420p(tv, bt709, progressive), 1920x1080 [SAR 1:1 DAR 16:9], 3448 kb/s, 23.98 fps, 23.98 tbr, 24k tbn (default)
      Metadata:
        handler_name    : VideoHandler
        vendor_id       : [0][0][0][0]
        encoder         : Lavc60.31.102 h264_qsv
  Stream #1:1[0x2](und): Audio: aac (HE-AACv2) (mp4a / 0x6134706D), 48000 Hz, stereo, fltp, 144 kb/s (default)
      Metadata:
        handler_name    : SoundHandler
        vendor_id       : [0][0][0][0]
Stream mapping:
  Stream #0:0 (hevc) -> settb:default
  Stream #1:0 (h264) -> settb:default
  psnr:default -> Stream #0:0 (wrapped_avframe)
  Stream #0:1 -> #0:1 (aac (native) -> pcm_s16le (native))
Output #0, null, to 'pipe:':
  Metadata:
    COMPATIBLE_BRANDS: isomiso2avc1mp41
    MAJOR_BRAND     : isom
    MINOR_VERSION   : 512
    encoder         : Lavf61.7.100
  Stream #0:0: Video: wrapped_avframe, yuv420p10le(tv, bt709, progressive), 1920x1080 [SAR 1:1 DAR 16:9], q=2-31, 200 kb/s, 23.98 fps, 23.98 tbn
      Metadata:
        encoder         : Lavc61.19.100 wrapped_avframe
  Stream #0:1: Audio: pcm_s16le, 48000 Hz, stereo, s16, 1536 kb/s (default)
      Metadata:
        HANDLER_NAME    : SoundHandler
        VENDOR_ID       : [0][0][0][0]
        _STATISTICS_TAGS: BPS DURATION NUMBER_OF_FRAMES NUMBER_OF_BYTES
        BPS             : 193583
        DURATION        : 00:23:47.584000000
        NUMBER_OF_FRAMES: 66919
        NUMBER_OF_BYTES : 34544636
        _STATISTICS_WRITING_APP: mkvpropedit v66.0.0 ('Josie') 64-bit
        _STATISTICS_WRITING_DATE_UTC: 2025-06-02 08:02:10
        encoder         : Lavc61.19.100 pcm_s16le
frame=  164 fps=0.0 q=-0.0 size=N/A time=00:00:06.84 bitrate=N/A speed=13.5x    frame=  417 fps=402 q=-0.0 size=N/A time=00:00:17.39 bitrate=N/A speed=16.8x    frame=  672 fps=434 q=-0.0 size=N/A time=00:00:28.02 bitrate=N/A speed=18.1x    frame=  923 fps=449 q=-0.0 size=N/A time=00:00:38.49 bitrate=N/A speed=18.7x    frame= 1147 fps=444 q=-0.0 size=N/A time=00:00:47.83 bitrate=N/A speed=18.5x    frame= 1337 fps=432 q=-0.0 size=N/A time=00:00:55.76 bitrate=N/A speed=  18x    frame= 1522 fps=422 q=-0.0 size=N/A time=00:01:03.48 bitrate=N/A speed=17.6x    frame= 1674 fps=405 q=-0.0 size=N/A time=00:01:09.81 bitrate=N/A speed=16.9x    frame= 1852 fps=399 q=-0.0 size=N/A time=00:01:17.24 bitrate=N/A speed=16.6x    frame= 2061 fps=400 q=-0.0 size=N/A time=00:01:25.96 bitrate=N/A speed=16.7x    frame= 2226 fps=393 q=-0.0 size=N/A time=00:01:32.84 bitrate=N/A speed=16.4x    frame= 2422 fps=391 q=-0.0 size=N/A time=00:01:41.01 bitrate=N/A speed=16.3x    frame= 2632 fps=393 q=-0.0 size=N/A time=00:01:49.77 bitrate=N/A speed=16.4x    frame= 2839 fps=394 q=-0.0 size=N/A time=00:01:58.40 bitrate=N/A speed=16.4x    frame= 3077 fps=398 q=-0.0 size=N/A time=00:02:08.33 bitrate=N/A speed=16.6x    frame= 3283 fps=398 q=-0.0 size=N/A time=00:02:16.92 bitrate=N/A speed=16.6x    frame= 3534 fps=404 q=-0.0 size=N/A time=00:02:27.39 bitrate=N/A speed=16.8x    frame= 3789 fps=408 q=-0.0 size=N/A time=00:02:38.03 bitrate=N/A speed=  17x    frame= 4072 fps=416 q=-0.0 size=N/A time=00:02:49.83 bitrate=N/A speed=17.3x    frame= 4345 fps=421 q=-0.0 size=N/A time=00:03:01.22 bitrate=N/A speed=17.6x    frame= 4603 fps=425 q=-0.0 size=N/A time=00:03:11.98 bitrate=N/A speed=17.7x    frame= 4855 fps=428 q=-0.0 size=N/A time=00:03:22.53 bitrate=N/A speed=17.8x    frame= 5097 fps=430 q=-0.0 size=N/A time=00:03:32.58 bitrate=N/A speed=17.9x    frame= 5330 fps=431 q=-0.0 size=N/A time=00:03:42.30 bitrate=N/A speed=  18x    frame= 5578 fps=433 q=-0.0 size=N/A time=00:03:52.64 bitrate=N/A speed=18.1x    frame= 5831 fps=435 q=-0.0 size=N/A time=00:04:03.20 bitrate=N/A speed=18.2x    frame= 6115 fps=439 q=-0.0 size=N/A time=00:04:15.04 bitrate=N/A speed=18.3x    frame= 6387 fps=442 q=-0.0 size=N/A time=00:04:26.39 bitrate=N/A speed=18.4x    frame= 6642 fps=444 q=-0.0 size=N/A time=00:04:37.02 bitrate=N/A speed=18.5x    frame= 6905 fps=446 q=-0.0 size=N/A time=00:04:47.99 bitrate=N/A speed=18.6x    frame= 7157 fps=448 q=-0.0 size=N/A time=00:04:58.50 bitrate=N/A speed=18.7x    frame= 7432 fps=450 q=-0.0 size=N/A time=00:05:09.97 bitrate=N/A speed=18.8x    frame= 7692 fps=452 q=-0.0 size=N/A time=00:05:20.82 bitrate=N/A speed=18.9x    frame= 7979 fps=455 q=-0.0 size=N/A time=00:05:32.79 bitrate=N/A speed=  19x    frame= 8239 fps=456 q=-0.0 size=N/A time=00:05:43.63 bitrate=N/A speed=  19x    frame= 8491 fps=457 q=-0.0 size=N/A time=00:05:54.14 bitrate=N/A speed=19.1x    frame= 8775 fps=459 q=-0.0 size=N/A time=00:06:05.99 bitrate=N/A speed=19.2x    frame= 9049 fps=462 q=-0.0 size=N/A time=00:06:17.41 bitrate=N/A speed=19.3x    frame= 9318 fps=463 q=-0.0 size=N/A time=00:06:28.63 bitrate=N/A speed=19.3x    frame= 9505 fps=461 q=-0.0 size=N/A time=00:06:36.43 bitrate=N/A speed=19.2x    frame= 9706 fps=459 q=-0.0 size=N/A time=00:06:44.82 bitrate=N/A speed=19.1x    frame= 9953 fps=459 q=-0.0 size=N/A time=00:06:55.12 bitrate=N/A speed=19.2x    frame=10215 fps=460 q=-0.0 size=N/A time=00:07:06.05 bitrate=N/A speed=19.2x    frame=10455 fps=460 q=-0.0 size=N/A time=00:07:16.06 bitrate=N/A speed=19.2x    frame=10700 fps=461 q=-0.0 size=N/A time=00:07:26.27 bitrate=N/A speed=19.2x    frame=10966 fps=462 q=-0.0 size=N/A time=00:07:37.37 bitrate=N/A speed=19.3x    frame=11233 fps=463 q=-0.0 size=N/A time=00:07:48.50 bitrate=N/A speed=19.3x    frame=11496 fps=464 q=-0.0 size=N/A time=00:07:59.47 bitrate=N/A speed=19.4x    frame=11758 fps=465 q=-0.0 size=N/A time=00:08:10.40 bitrate=N/A speed=19.4x    frame=12022 fps=466 q=-0.0 size=N/A time=00:08:21.41 bitrate=N/A speed=19.4x    frame=12281 fps=466 q=-0.0 size=N/A time=00:08:32.22 bitrate=N/A speed=19.5x    frame=12556 fps=468 q=-0.0 size=N/A time=00:08:43.68 bitrate=N/A speed=19.5x    frame=12798 fps=468 q=-0.0 size=N/A time=00:08:53.78 bitrate=N/A speed=19.5x    frame=13030 fps=468 q=-0.0 size=N/A time=00:09:03.45 bitrate=N/A speed=19.5x    frame=13275 fps=468 q=-0.0 size=N/A time=00:09:13.67 bitrate=N/A speed=19.5x    frame=13534 fps=468 q=-0.0 size=N/A time=00:09:24.48 bitrate=N/A speed=19.5x    frame=13770 fps=468 q=-0.0 size=N/A time=00:09:34.32 bitrate=N/A speed=19.5x    frame=13993 fps=468 q=-0.0 size=N/A time=00:09:43.62 bitrate=N/A speed=19.5x    frame=14237 fps=468 q=-0.0 size=N/A time=00:09:53.80 bitrate=N/A speed=19.5x    frame=14485 fps=468 q=-0.0 size=N/A time=00:10:04.14 bitrate=N/A speed=19.5x    frame=14736 fps=468 q=-0.0 size=N/A time=00:10:14.61 bitrate=N/A speed=19.5x    frame=15003 fps=469 q=-0.0 size=N/A time=00:10:25.75 bitrate=N/A speed=19.6x    frame=15276 fps=470 q=-0.0 size=N/A time=00:10:37.13 bitrate=N/A speed=19.6x    frame=15560 fps=471 q=-0.0 size=N/A time=00:10:48.98 bitrate=N/A speed=19.6x    frame=15845 fps=472 q=-0.0 size=N/A time=00:11:00.86 bitrate=N/A speed=19.7x    frame=16092 fps=472 q=-0.0 size=N/A time=00:11:11.17 bitrate=N/A speed=19.7x    frame=16312 fps=472 q=-0.0 size=N/A time=00:11:20.34 bitrate=N/A speed=19.7x    frame=16563 fps=472 q=-0.0 size=N/A time=00:11:30.81 bitrate=N/A speed=19.7x    frame=16820 fps=472 q=-0.0 size=N/A time=00:11:41.53 bitrate=N/A speed=19.7x    frame=17059 fps=472 q=-0.0 size=N/A time=00:11:51.50 bitrate=N/A speed=19.7x    frame=17326 fps=473 q=-0.0 size=N/A time=00:12:02.63 bitrate=N/A speed=19.7x    frame=17587 fps=473 q=-0.0 size=N/A time=00:12:13.52 bitrate=N/A speed=19.7x    frame=17850 fps=474 q=-0.0 size=N/A time=00:12:24.49 bitrate=N/A speed=19.8x    frame=18090 fps=474 q=-0.0 size=N/A time=00:12:34.50 bitrate=N/A speed=19.8x    frame=18343 fps=474 q=-0.0 size=N/A time=00:12:45.05 bitrate=N/A speed=19.8x    frame=18612 fps=474 q=-0.0 size=N/A time=00:12:56.27 bitrate=N/A speed=19.8x    frame=18810 fps=473 q=-0.0 size=N/A time=00:13:04.53 bitrate=N/A speed=19.7x    frame=19034 fps=473 q=-0.0 size=N/A time=00:13:13.87 bitrate=N/A speed=19.7x    frame=19244 fps=472 q=-0.0 size=N/A time=00:13:22.63 bitrate=N/A speed=19.7x    frame=19476 fps=472 q=-0.0 size=N/A time=00:13:32.31 bitrate=N/A speed=19.7x    frame=19721 fps=472 q=-0.0 size=N/A time=00:13:42.53 bitrate=N/A speed=19.7x    frame=19967 fps=472 q=-0.0 size=N/A time=00:13:52.79 bitrate=N/A speed=19.7x    frame=20214 fps=472 q=-0.0 size=N/A time=00:14:03.09 bitrate=N/A speed=19.7x    frame=20464 fps=472 q=-0.0 size=N/A time=00:14:13.51 bitrate=N/A speed=19.7x    frame=20687 fps=472 q=-0.0 size=N/A time=00:14:22.82 bitrate=N/A speed=19.7x    frame=20960 fps=472 q=-0.0 size=N/A time=00:14:34.20 bitrate=N/A speed=19.7x    frame=21223 fps=473 q=-0.0 size=N/A time=00:14:45.17 bitrate=N/A speed=19.7x    frame=21458 fps=472 q=-0.0 size=N/A time=00:14:54.97 bitrate=N/A speed=19.7x    frame=21715 fps=473 q=-0.0 size=N/A time=00:15:05.69 bitrate=N/A speed=19.7x    frame=21977 fps=473 q=-0.0 size=N/A time=00:15:16.62 bitrate=N/A speed=19.7x    frame=22248 fps=474 q=-0.0 size=N/A time=00:15:27.92 bitrate=N/A speed=19.8x    frame=22506 fps=474 q=-0.0 size=N/A time=00:15:38.68 bitrate=N/A speed=19.8x    frame=22751 fps=474 q=-0.0 size=N/A time=00:15:48.90 bitrate=N/A speed=19.8x    frame=23010 fps=474 q=-0.0 size=N/A time=00:15:59.70 bitrate=N/A speed=19.8x    frame=23275 fps=475 q=-0.0 size=N/A time=00:16:10.76 bitrate=N/A speed=19.8x    frame=23522 fps=475 q=-0.0 size=N/A time=00:16:21.06 bitrate=N/A speed=19.8x    frame=23774 fps=475 q=-0.0 size=N/A time=00:16:31.57 bitrate=N/A speed=19.8x    frame=24026 fps=475 q=-0.0 size=N/A time=00:16:42.08 bitrate=N/A speed=19.8x    frame=24296 fps=475 q=-0.0 size=N/A time=00:16:53.34 bitrate=N/A speed=19.8x    frame=24564 fps=476 q=-0.0 size=N/A time=00:17:04.52 bitrate=N/A speed=19.9x    frame=24812 fps=476 q=-0.0 size=N/A time=00:17:14.86 bitrate=N/A speed=19.9x    frame=25068 fps=476 q=-0.0 size=N/A time=00:17:25.54 bitrate=N/A speed=19.9x    frame=25296 fps=476 q=-0.0 size=N/A time=00:17:35.05 bitrate=N/A speed=19.8x    frame=25536 fps=476 q=-0.0 size=N/A time=00:17:45.06 bitrate=N/A speed=19.8x    frame=25801 fps=476 q=-0.0 size=N/A time=00:17:56.11 bitrate=N/A speed=19.9x    frame=26082 fps=477 q=-0.0 size=N/A time=00:18:07.83 bitrate=N/A speed=19.9x    frame=26335 fps=477 q=-0.0 size=N/A time=00:18:18.38 bitrate=N/A speed=19.9x    frame=26610 fps=477 q=-0.0 size=N/A time=00:18:29.85 bitrate=N/A speed=19.9x    frame=26892 fps=478 q=-0.0 size=N/A time=00:18:41.62 bitrate=N/A speed=19.9x    frame=27152 fps=478 q=-0.0 size=N/A time=00:18:52.46 bitrate=N/A speed=19.9x    frame=27425 fps=479 q=-0.0 size=N/A time=00:19:03.85 bitrate=N/A speed=  20x    frame=27680 fps=479 q=-0.0 size=N/A time=00:19:14.48 bitrate=N/A speed=  20x    frame=27923 fps=479 q=-0.0 size=N/A time=00:19:24.66 bitrate=N/A speed=  20x    frame=28200 fps=479 q=-0.0 size=N/A time=00:19:36.17 bitrate=N/A speed=  20x    frame=28469 fps=480 q=-0.0 size=N/A time=00:19:47.39 bitrate=N/A speed=  20x    frame=28745 fps=480 q=-0.0 size=N/A time=00:19:58.90 bitrate=N/A speed=  20x    frame=29007 fps=480 q=-0.0 size=N/A time=00:20:09.83 bitrate=N/A speed=  20x    frame=29267 fps=481 q=-0.0 size=N/A time=00:20:20.71 bitrate=N/A speed=  20x    frame=29549 fps=481 q=-0.0 size=N/A time=00:20:32.43 bitrate=N/A speed=20.1x    frame=29831 fps=482 q=-0.0 size=N/A time=00:20:44.20 bitrate=N/A speed=20.1x    frame=30103 fps=482 q=-0.0 size=N/A time=00:20:55.54 bitrate=N/A speed=20.1x    frame=30367 fps=482 q=-0.0 size=N/A time=00:21:06.55 bitrate=N/A speed=20.1x    frame=30648 fps=483 q=-0.0 size=N/A time=00:21:18.27 bitrate=N/A speed=20.1x    frame=30899 fps=483 q=-0.0 size=N/A time=00:21:28.74 bitrate=N/A speed=20.1x    frame=31182 fps=483 q=-0.0 size=N/A time=00:21:40.54 bitrate=N/A speed=20.2x    frame=31453 fps=484 q=-0.0 size=N/A time=00:21:51.85 bitrate=N/A speed=20.2x    frame=31714 fps=484 q=-0.0 size=N/A time=00:22:02.73 bitrate=N/A speed=20.2x    frame=31875 fps=483 q=-0.0 size=N/A time=00:22:09.45 bitrate=N/A speed=20.1x    frame=32066 fps=482 q=-0.0 size=N/A time=00:22:17.41 bitrate=N/A speed=20.1x    frame=32275 fps=481 q=-0.0 size=N/A time=00:22:26.13 bitrate=N/A speed=20.1x    frame=32458 fps=480 q=-0.0 size=N/A time=00:22:33.76 bitrate=N/A speed=  20x    frame=32646 fps=479 q=-0.0 size=N/A time=00:22:41.61 bitrate=N/A speed=  20x    frame=32835 fps=478 q=-0.0 size=N/A time=00:22:49.49 bitrate=N/A speed=19.9x    frame=33036 fps=478 q=-0.0 size=N/A time=00:22:57.87 bitrate=N/A speed=19.9x    frame=33199 fps=476 q=-0.0 size=N/A time=00:23:04.67 bitrate=N/A speed=19.9x    frame=33416 fps=476 q=-0.0 size=N/A time=00:23:13.72 bitrate=N/A speed=19.9x    frame=33626 fps=476 q=-0.0 size=N/A time=00:23:22.48 bitrate=N/A speed=19.8x    frame=33801 fps=475 q=-0.0 size=N/A time=00:23:29.78 bitrate=N/A speed=19.8x    frame=34029 fps=474 q=-0.0 size=N/A time=00:23:39.29 bitrate=N/A speed=19.8x    [Parsed_psnr_10 @ 000002778ecb9a40] PSNR y:47.678780 u:50.396855 v:50.491436 average:48.420434 min:41.751068 max:inf
[out#0/null @ 000002778e7f50c0] video:14697KiB audio:267676KiB subtitle:0KiB other streams:0KiB global headers:0KiB muxing overhead: unknown
frame=34204 fps=474 q=-0.0 Lsize=N/A time=00:23:46.59 bitrate=N/A speed=19.8x    
